<svg width="780" height="220" viewBox="0 0 780 220" xmlns="http://www.w3.org/2000/svg" font-family="-apple-system,BlinkMacSystemFont,'Segoe UI',Helvetica,Arial,sans-serif">
  <style>
    .card { fill: #ffffff; stroke: #d0d7de; stroke-width: 1; rx: 6; }
  </style>

  <!-- Left card: Stats -->
  <rect x="20" y="10" width="370" height="200" rx="6" fill="#ffffff" stroke="#d0d7de" stroke-width="1"/>
  <text x="40" y="38" font-size="14" font-weight="600" fill="#24292f">📊 GitHub Stats</text>
  <text x="40" y="68" font-size="13" fill="#57606a">⭐ Total Stars</text><text x="220" y="68" font-size="13" font-weight="600" fill="#24292f" text-anchor="end">1</text>
  <text x="40" y="94" font-size="13" fill="#57606a">📦 Commits (year)</text><text x="220" y="94" font-size="13" font-weight="600" fill="#24292f" text-anchor="end">52</text>
  <text x="40" y="120" font-size="13" fill="#57606a">🔀 Pull Requests</text><text x="220" y="120" font-size="13" font-weight="600" fill="#24292f" text-anchor="end">8</text>
  <text x="40" y="146" font-size="13" fill="#57606a">🐛 Issues opened</text><text x="220" y="146" font-size="13" font-weight="600" fill="#24292f" text-anchor="end">0</text>
  <text x="40" y="172" font-size="13" fill="#57606a">👥 Followers</text><text x="220" y="172" font-size="13" font-weight="600" fill="#24292f" text-anchor="end">5</text>
  <text x="40" y="204" font-size="10" fill="#8c959f">Updated: 2026-06-03 15:00 UTC</text>

  <!-- Right card: Languages -->
  <rect x="410" y="10" width="370" height="200" rx="6" fill="#ffffff" stroke="#d0d7de" stroke-width="1"/>
  <text x="430" y="38" font-size="14" font-weight="600" fill="#24292f">💻 Top Languages</text>
  <text x="430" y="60" font-size="12" fill="#57606a">HTML</text><text x="760" y="60" font-size="12" fill="#57606a" text-anchor="end">93.9%</text><rect x="430" y="64" width="330" height="6" rx="3" fill="#e8eaed"/><rect x="430" y="64" width="310" height="6" rx="3" fill="#e34c26"/><text x="430" y="86" font-size="12" fill="#57606a">Jupyter Notebook</text><text x="760" y="86" font-size="12" fill="#57606a" text-anchor="end">4.1%</text><rect x="430" y="90" width="330" height="6" rx="3" fill="#e8eaed"/><rect x="430" y="90" width="13" height="6" rx="3" fill="#DA5B0B"/><text x="430" y="112" font-size="12" fill="#57606a">Makefile</text><text x="760" y="112" font-size="12" fill="#57606a" text-anchor="end">1.8%</text><rect x="430" y="116" width="330" height="6" rx="3" fill="#e8eaed"/><rect x="430" y="116" width="5" height="6" rx="3" fill="#427819"/><text x="430" y="138" font-size="12" fill="#57606a">Java</text><text x="760" y="138" font-size="12" fill="#57606a" text-anchor="end">0.1%</text><rect x="430" y="142" width="330" height="6" rx="3" fill="#e8eaed"/><rect x="430" y="142" width="0" height="6" rx="3" fill="#b07219"/><text x="430" y="164" font-size="12" fill="#57606a">Python</text><text x="760" y="164" font-size="12" fill="#57606a" text-anchor="end">0.1%</text><rect x="430" y="168" width="330" height="6" rx="3" fill="#e8eaed"/><rect x="430" y="168" width="0" height="6" rx="3" fill="#3572A5"/><text x="430" y="190" font-size="12" fill="#57606a">C</text><text x="760" y="190" font-size="12" fill="#57606a" text-anchor="end">0.0%</text><rect x="430" y="194" width="330" height="6" rx="3" fill="#e8eaed"/><rect x="430" y="194" width="0" height="6" rx="3" fill="#555555"/>
</svg>